<?xml version="1.0" encoding="UTF-8"?>
<!DOCTYPE svg PUBLIC "-//W3C//DTD SVG 1.1//EN" "http://www.w3.org/Graphics/SVG/1.1/DTD/svg11.dtd">
<svg version="1.1" xmlns="http://www.w3.org/2000/svg" xmlns:xlink="http://www.w3.org/1999/xlink" x="0" y="0" width="366" height="140" viewBox="0, 0, 366, 140">
  <g id="Layer_2">
    <path d="M170.117,-0 L337.813,-0 C344.77,-0 350.409,6.103 350.409,13.632 L350.409,68.878 C350.409,76.406 344.77,82.51 337.813,82.51 L170.117,82.51 C163.161,82.51 157.521,76.406 157.521,68.878 L157.521,13.632 C157.521,6.103 163.161,-0 170.117,-0 z" fill="#1E79E9"/>
    <path d="M60.858,65.625 L71.958,65.625 L69.258,15.075 L54.258,15.075 L48.933,31.875 C47.208,37.5 45.483,44.175 44.133,50.025 L43.833,50.025 C42.708,44.1 41.208,37.8 39.558,31.95 L34.608,15.075 L19.383,15.075 L16.158,65.625 L26.733,65.625 L27.708,46.425 C28.008,40.125 28.308,32.325 28.533,25.5 L28.683,25.5 C29.958,32.1 31.608,39.3 33.258,45.3 L38.658,64.8 L47.583,64.8 L53.733,45.075 C55.683,39.15 57.783,31.95 59.433,25.5 L59.583,25.5 C59.583,32.85 59.808,40.2 60.033,46.275 z" fill="#1E79E9"/>
    <path d="M109.608,43.95 C109.608,35.25 105.783,28.05 93.558,28.05 C86.883,28.05 81.858,29.925 79.308,31.35 L81.408,38.7 C83.808,37.2 87.783,35.925 91.533,35.925 C97.158,35.925 98.208,38.7 98.208,40.725 L98.208,41.175 C85.233,41.175 76.683,45.675 76.683,55.2 C76.683,61.05 81.108,66.45 88.533,66.45 C92.883,66.45 96.633,64.875 99.033,61.95 L99.258,61.95 L99.933,65.625 L110.208,65.625 C109.758,63.6 109.608,60.225 109.608,56.775 z M98.583,52.275 C98.583,52.95 98.508,53.625 98.358,54.225 C97.608,56.55 95.208,58.425 92.433,58.425 C89.883,58.425 87.933,57 87.933,54.075 C87.933,49.725 92.583,48.3 98.583,48.3 z" fill="#1E79E9"/>
    <path d="M143.358,56.25 C141.633,57 139.533,57.45 136.833,57.45 C131.283,57.45 126.783,53.85 126.783,47.175 C126.708,41.175 130.608,36.9 136.608,36.9 C139.608,36.9 141.633,37.425 142.983,38.025 L144.783,29.55 C142.383,28.65 139.083,28.125 136.083,28.125 C122.433,28.125 115.083,36.9 115.083,47.625 C115.083,59.1 122.658,66.375 134.508,66.375 C138.858,66.375 142.683,65.625 144.708,64.65 z" fill="#1E79E9"/>
    <path d="M173.617,65.625 L184.942,65.625 L184.942,47.475 C185.992,47.7 187.342,47.775 188.842,47.775 C195.592,47.775 201.367,46.05 205.267,42.45 C208.342,39.675 209.917,35.4 209.917,30.45 C209.917,25.5 207.817,21.3 204.517,18.75 C201.142,16.05 196.117,14.7 189.067,14.7 C182.092,14.7 177.142,15.15 173.617,15.75 z M184.942,23.775 C185.767,23.55 187.342,23.4 189.592,23.4 C195.367,23.4 198.592,26.175 198.592,30.825 C198.592,35.925 194.842,39 188.767,39 C187.042,39 185.917,38.925 184.942,38.7 z" fill="#FFFFFF"/>
    <path d="M230.567,28.05 C218.717,28.05 210.917,35.625 210.917,47.55 C210.917,59.4 219.167,66.45 229.892,66.45 C239.717,66.45 249.242,60.3 249.242,46.875 C249.242,35.775 241.742,28.05 230.567,28.05 z M230.192,36.225 C235.367,36.225 237.467,41.775 237.467,47.175 C237.467,53.85 234.692,58.275 230.192,58.275 C225.317,58.275 222.692,53.55 222.692,47.25 C222.692,41.85 224.792,36.225 230.192,36.225 z" fill="#FFFFFF"/>
    <path d="M254.292,65.625 L265.692,65.625 L265.692,47.025 C265.692,46.125 265.767,45.225 265.917,44.475 C266.667,40.95 269.517,38.7 273.717,38.7 C274.992,38.7 275.892,38.85 276.792,39 L276.792,28.275 C275.967,28.125 275.442,28.05 274.392,28.05 C270.792,28.05 266.367,30.3 264.492,35.7 L264.192,35.7 L263.742,28.95 L253.992,28.95 C254.217,32.1 254.292,35.625 254.292,41.025 z" fill="#FFFFFF"/>
    <path d="M283.942,22.125 L283.942,28.95 L279.067,28.95 L279.067,37.35 L283.942,37.35 L283.942,52.35 C283.942,57.525 284.992,61.05 287.092,63.225 C288.967,65.1 292.042,66.375 295.717,66.375 C298.867,66.375 301.642,65.925 303.067,65.4 L302.992,56.775 C301.942,57 301.192,57.075 299.617,57.075 C296.242,57.075 295.117,55.05 295.117,50.625 L295.117,37.35 L303.292,37.35 L303.292,28.95 L295.117,28.95 L295.117,19.05 z" fill="#FFFFFF"/>
    <path d="M305.792,63.825 C308.567,65.325 312.842,66.45 317.642,66.45 C328.142,66.45 333.467,61.425 333.467,54.525 C333.392,49.2 330.542,45.6 323.567,43.2 C319.067,41.625 317.642,40.725 317.642,38.925 C317.642,37.125 319.217,36 321.992,36 C325.067,36 328.292,37.2 329.942,38.1 L331.892,30.225 C329.642,29.1 325.892,28.05 321.617,28.05 C312.542,28.05 306.692,33.225 306.692,40.125 C306.617,44.475 309.542,48.6 317.192,51.15 C321.392,52.575 322.517,53.475 322.517,55.425 C322.517,57.3 321.092,58.425 317.642,58.425 C314.267,58.425 309.917,57 307.817,55.725 z" fill="#FFFFFF"/>
  </g>
</svg>